<?xml version="1.0" encoding="UTF-8" standalone="no"?>
<!-- Created with Inkscape (http://www.inkscape.org/) -->

<svg
   xmlns:dc="http://purl.org/dc/elements/1.1/"
   xmlns:cc="http://creativecommons.org/ns#"
   xmlns:rdf="http://www.w3.org/1999/02/22-rdf-syntax-ns#"
   xmlns:svg="http://www.w3.org/2000/svg"
   xmlns="http://www.w3.org/2000/svg"
   xmlns:sodipodi="http://sodipodi.sourceforge.net/DTD/sodipodi-0.dtd"
   xmlns:inkscape="http://www.inkscape.org/namespaces/inkscape"
   sodipodi:docname="Harlequin-Great-Dane.svg"
   height="400"
   width="600"
   inkscape:version="0.48.2 r9819"
   version="1.1"
   id="svg2">
  <metadata
     id="metadata8">
    <rdf:RDF>
      <cc:Work
         rdf:about="">
        <dc:format>image/svg+xml</dc:format>
        <dc:type
           rdf:resource="http://purl.org/dc/dcmitype/StillImage" />
        <dc:title></dc:title>
      </cc:Work>
    </rdf:RDF>
  </metadata>
  <defs
     id="defs6" />
  <sodipodi:namedview
     pagecolor="#ffffff"
     bordercolor="#666666"
     borderopacity="1"
     objecttolerance="10"
     gridtolerance="10"
     guidetolerance="10"
     inkscape:pageopacity="0"
     inkscape:pageshadow="2"
     inkscape:window-width="1339"
     inkscape:window-height="899"
     id="namedview4"
     showgrid="false"
     inkscape:zoom="0.225"
     inkscape:cx="566.66694"
     inkscape:cy="379.07718"
     inkscape:window-x="251"
     inkscape:window-y="-1"
     inkscape:window-maximized="0"
     inkscape:current-layer="svg2"
     showborder="true"
     inkscape:showpageshadow="false"
     borderlayer="true" />
  <g
     id="g3795"
     transform="matrix(0.35004026,0,0,0.35256409,183.73112,-36.849602)">
    <g
       id="g3785">
      <path
         style="fill:#000000;stroke:#db8181;stroke-width:2.84657073px;stroke-linecap:butt;stroke-linejoin:miter;stroke-opacity:1"
         d="m -218.23648,1177.8211 c 603.9433,12.3528 257.266496,12.9166 1219.95778,-2.7901 C 1217.5992,-374.70526 -708.87398,84.606629 -218.23648,1177.8211 z M 648.46181,552.13542 c 0.91853,-0.0346 1.9108,0.10423 2.96875,0.40625 9.03229,2.63417 21.09733,7.33921 23.53125,17.75 4.17262,11.39253 11.13365,22.71195 13.25,34.28125 -4.0417,10.19986 -19.85193,3.40554 -15.03125,20.125 -2.19994,15.42681 2.17825,30.74635 12.0625,42.75 5.39969,13.46647 4.97524,27.21881 1.68029,41.08978 -14.8763,-4.15693 -16.55824,0.24124 -26.06599,5.219 -15.36875,0.2661 -34.22046,0.56809 -45.9893,-10.90253 -11.05079,12.44201 -28.93464,22.64508 -27.46875,41.59375 -3.36049,23.89366 -1.63882,48.57394 -12.25,70.9375 -10.72001,35.81007 -26.34857,70.12557 -30.625,107.59377 -8.41731,35.2056 -13.73963,71.0614 -14.03125,107.31251 -1.07067,21.0753 -1.38627,42.1275 0.6875,63.1562 7.95304,5.2172 22.86571,8.2266 18.96875,20.4063 -4.17776,12.6176 -18.9272,16.6275 -30.84375,13.625 -10.1293,0.6238 -18.60788,-5.4433 -27.75,-8.8125 -5.63055,-10.5441 9.58755,-16.9371 6.1875,-28.25 0.88609,-48.9185 3.78842,-97.89551 3.0625,-146.78131 -2.25765,-10.6258 1.70084,-23.5204 -6.53125,-31.9687 -9.77428,14.6009 -13.20712,32.9054 -16.09375,50.0312 -4.15809,37.5027 -12.72625,74.67161 -17.8125,111.84381 1.97084,14.6682 7.25212,29.3581 5.09375,44.2187 -9.11665,7.1212 -19.51792,8.0072 -30.5625,5.7813 -22.35822,4.1064 -17.17483,-19.8361 -15.375,-33.6875 6.95102,-48.375 22.109,-95.56191 23.8125,-144.65631 1.85956,-17.4558 2.83961,-34.9082 1.4375,-52.4375 -19.76488,0.7732 -38.95179,-2.667 -57.8125,-8.375 -19.43141,-3.8957 -38.70583,-10.1579 -58.125,-13.0312 -11.76282,0.8121 -23.5607,1.1613 -35.28125,2.5 -0.50855,27.6716 -1.28075,55.6407 -5.625,82.9687 -8.90709,41.7416 -14.91422,84.38101 -29.84375,124.50001 -4.38639,15.1929 -8.57687,30.4237 -5.9375,46.3438 -2.33991,9.2742 -18.30232,3.7508 -26.625,5.0625 -8.636,1.0604 -22.74858,-2.8211 -23.3125,-12.0625 1.8974,-18.9681 15.06896,-34.5133 19.3125,-53.0625 8.18178,-21.1095 7.04825,-44.4348 10,-66.6563 0.34458,-16.26491 1.38438,-32.54055 -0.0625,-48.78121 -9.1998,1.2614 -22.63684,-9.645 -27.4375,-4.9688 -18.25712,46.1221 -41.77475,90.34401 -55.375,138.15631 -3.4991,13.2789 4.04815,38.0178 -5.21875,46.0937 -22.40299,6.0352 -36.89387,-9.989 -42.5,-30.7812 1.67162,-17.556 8.07359,-33.5986 14.96875,-49.625 8.35827,-21.5578 16.55662,-43.1703 18.9375,-66.34381 3.89265,-20.5568 2.07502,-42.0932 -3.28125,-62.25 -3.61008,13.3126 -9.06812,25.6096 -19.28125,35.1875 -12.57891,11.6591 -31.04013,34.5813 -48.59375,25.4375 l -1.3125,-1.0937 -0.125,-0.125 c 13.67903,-8.5811 29.40718,-14.85394 37.5625,-29.6875 10.1768,-13.188 18.54771,-28.7578 18.15625,-45.8438 2.59868,-44.6334 -0.74663,-89.53188 2.78125,-134.18747 8.00678,-31.5343 33.71935,-53.67834 60.09375,-70.40625 15.25622,-14.03203 34.74003,-20.62094 54.84375,-23.71875 36.9893,-4.63288 74.53529,1.68528 111.53125,4.125 23.89677,6.19305 49.15341,5.07199 72.25,-4.03125 6.04849,-4.41421 47.31667,-21.02933 90.87075,-34.65625 8.81087,-13.57883 24.55674,-23.24836 28.848,-39.46875 13.22485,-16.87862 18.44918,-59.86541 47.0625,-39.21875 13.59442,2.64756 25.84479,-7.65424 39.4375,-2.3125 10.84595,4.41417 13.90214,-9.97829 22.78125,-10.3125 z"
         id="path3768"
         inkscape:connector-curvature="0"
         sodipodi:nodetypes="cccscccccccccccccccccccccccccccccccccccccccccccccccccccccccccccs" />
      <path
         sodipodi:type="star"
         style="fill:#ffffff;fill-opacity:1;fill-rule:nonzero;stroke:#600303;stroke-width:0.44692856;stroke-linecap:round;stroke-linejoin:round;stroke-miterlimit:4;stroke-opacity:1;stroke-dasharray:none;stroke-dashoffset:0"
         id="path3771"
         sodipodi:sides="5"
         sodipodi:cx="-191.11111"
         sodipodi:cy="1045.3333"
         sodipodi:r1="87.995514"
         sodipodi:r2="34.809818"
         sodipodi:arg1="0.78539816"
         sodipodi:arg2="1.31998"
         inkscape:flatsided="false"
         inkscape:rounded="0"
         inkscape:randomized="0"
         d="m -128.88889,1107.5555 -53.58261,-28.5016 -48.58874,44.6839 10.54869,-59.7675 -57.51171,-32.4026 60.10206,-8.4368 13.04455,-64.70979 26.59642,54.55339 65.57369,-7.5904 -43.66457,42.1526 z"
         inkscape:transform-center-x="1.3994347"
         inkscape:transform-center-y="-1.3415973"
         transform="matrix(0.65050252,0,0,0.62361809,-74.946211,342.9546)" />
      <path
         transform="matrix(0.65050252,0,0,0.62361809,-43.8351,-12.600963)"
         inkscape:transform-center-y="-1.3415973"
         inkscape:transform-center-x="1.3994347"
         d="m -128.88889,1107.5555 -53.58261,-28.5016 -48.58874,44.6839 10.54869,-59.7675 -57.51171,-32.4026 60.10206,-8.4368 13.04455,-64.70979 26.59642,54.55339 65.57369,-7.5904 -43.66457,42.1526 z"
         inkscape:randomized="0"
         inkscape:rounded="0"
         inkscape:flatsided="false"
         sodipodi:arg2="1.31998"
         sodipodi:arg1="0.78539816"
         sodipodi:r2="34.809818"
         sodipodi:r1="87.995514"
         sodipodi:cy="1045.3333"
         sodipodi:cx="-191.11111"
         sodipodi:sides="5"
         id="path3773"
         style="fill:#ffffff;fill-opacity:1;fill-rule:nonzero;stroke:#600303;stroke-width:0.44692856;stroke-linecap:round;stroke-linejoin:round;stroke-miterlimit:4;stroke-opacity:1;stroke-dasharray:none;stroke-dashoffset:0"
         sodipodi:type="star" />
      <path
         sodipodi:type="star"
         style="fill:#ffffff;fill-opacity:1;fill-rule:nonzero;stroke:#600303;stroke-width:0.44692856;stroke-linecap:round;stroke-linejoin:round;stroke-miterlimit:4;stroke-opacity:1;stroke-dasharray:none;stroke-dashoffset:0"
         id="path3775"
         sodipodi:sides="5"
         sodipodi:cx="-191.11111"
         sodipodi:cy="1045.3333"
         sodipodi:r1="87.995514"
         sodipodi:r2="34.809818"
         sodipodi:arg1="0.78539816"
         sodipodi:arg2="1.31998"
         inkscape:flatsided="false"
         inkscape:rounded="0"
         inkscape:randomized="0"
         d="m -128.88889,1107.5555 -53.58261,-28.5016 -48.58874,44.6839 10.54869,-59.7675 -57.51171,-32.4026 60.10206,-8.4368 13.04455,-64.70979 26.59642,54.55339 65.57369,-7.5904 -43.66457,42.1526 z"
         inkscape:transform-center-x="1.3994347"
         inkscape:transform-center-y="-1.3415973"
         transform="matrix(0.65050252,0,0,0.62361809,169.49823,-261.48985)" />
      <path
         transform="matrix(0.65050252,0,0,0.62361809,502.83158,-368.15652)"
         inkscape:transform-center-y="-1.3415973"
         inkscape:transform-center-x="1.3994347"
         d="m -128.88889,1107.5555 -53.58261,-28.5016 -48.58874,44.6839 10.54869,-59.7675 -57.51171,-32.4026 60.10206,-8.4368 13.04455,-64.70979 26.59642,54.55339 65.57369,-7.5904 -43.66457,42.1526 z"
         inkscape:randomized="0"
         inkscape:rounded="0"
         inkscape:flatsided="false"
         sodipodi:arg2="1.31998"
         sodipodi:arg1="0.78539816"
         sodipodi:r2="34.809818"
         sodipodi:r1="87.995514"
         sodipodi:cy="1045.3333"
         sodipodi:cx="-191.11111"
         sodipodi:sides="5"
         id="path3777"
         style="fill:#ffffff;fill-opacity:1;fill-rule:nonzero;stroke:#600303;stroke-width:0.44692856;stroke-linecap:round;stroke-linejoin:round;stroke-miterlimit:4;stroke-opacity:1;stroke-dasharray:none;stroke-dashoffset:0"
         sodipodi:type="star" />
      <path
         sodipodi:type="star"
         style="fill:#ffffff;fill-opacity:1;fill-rule:nonzero;stroke:#600303;stroke-width:0.44692856;stroke-linecap:round;stroke-linejoin:round;stroke-miterlimit:4;stroke-opacity:1;stroke-dasharray:none;stroke-dashoffset:0"
         id="path3779"
         sodipodi:sides="5"
         sodipodi:cx="-191.11111"
         sodipodi:cy="1045.3333"
         sodipodi:r1="87.995514"
         sodipodi:r2="34.809818"
         sodipodi:arg1="0.78539816"
         sodipodi:arg2="1.31998"
         inkscape:flatsided="false"
         inkscape:rounded="0"
         inkscape:randomized="0"
         d="m -128.88889,1107.5555 -53.58261,-28.5016 -48.58874,44.6839 10.54869,-59.7675 -57.51171,-32.4026 60.10206,-8.4368 13.04455,-64.70979 26.59642,54.55339 65.57369,-7.5904 -43.66457,42.1526 z"
         inkscape:transform-center-x="1.3994347"
         inkscape:transform-center-y="-1.3415973"
         transform="matrix(0.65050252,0,0,0.62361809,853.94268,-265.9343)" />
      <path
         transform="matrix(0.65050252,0,0,0.62361809,1022.8315,5.1768094)"
         inkscape:transform-center-y="-1.3415973"
         inkscape:transform-center-x="1.3994347"
         d="m -128.88889,1107.5555 -53.58261,-28.5016 -48.58874,44.6839 10.54869,-59.7675 -57.51171,-32.4026 60.10206,-8.4368 13.04455,-64.70979 26.59642,54.55339 65.57369,-7.5904 -43.66457,42.1526 z"
         inkscape:randomized="0"
         inkscape:rounded="0"
         inkscape:flatsided="false"
         sodipodi:arg2="1.31998"
         sodipodi:arg1="0.78539816"
         sodipodi:r2="34.809818"
         sodipodi:r1="87.995514"
         sodipodi:cy="1045.3333"
         sodipodi:cx="-191.11111"
         sodipodi:sides="5"
         id="path3781"
         style="fill:#ffffff;fill-opacity:1;fill-rule:nonzero;stroke:#600303;stroke-width:0.44692856;stroke-linecap:round;stroke-linejoin:round;stroke-miterlimit:4;stroke-opacity:1;stroke-dasharray:none;stroke-dashoffset:0"
         sodipodi:type="star" />
      <path
         sodipodi:type="star"
         style="fill:#ffffff;fill-opacity:1;fill-rule:nonzero;stroke:#600303;stroke-width:0.44692856;stroke-linecap:round;stroke-linejoin:round;stroke-miterlimit:4;stroke-opacity:1;stroke-dasharray:none;stroke-dashoffset:0"
         id="path3783"
         sodipodi:sides="5"
         sodipodi:cx="-191.11111"
         sodipodi:cy="1045.3333"
         sodipodi:r1="87.995514"
         sodipodi:r2="34.809818"
         sodipodi:arg1="0.78539816"
         sodipodi:arg2="1.31998"
         inkscape:flatsided="false"
         inkscape:rounded="0"
         inkscape:randomized="0"
         d="m -128.88889,1107.5555 -53.58261,-28.5016 -48.58874,44.6839 10.54869,-59.7675 -57.51171,-32.4026 60.10206,-8.4368 13.04455,-64.70979 26.59642,54.55339 65.57369,-7.5904 -43.66457,42.1526 z"
         inkscape:transform-center-x="1.3994347"
         inkscape:transform-center-y="-1.3415973"
         transform="matrix(0.65050252,0,0,0.62361809,1049.4982,311.84348)" />
    </g>
  </g>
</svg>
